<?xml version="1.0" encoding="UTF-8" standalone="no"?>
<!DOCTYPE svg PUBLIC "-//W3C//DTD SVG 1.1//EN" "http://www.w3.org/Graphics/SVG/1.1/DTD/svg11.dtd">
<svg xmlns:xl="http://www.w3.org/1999/xlink" version="1.1" xmlns="http://www.w3.org/2000/svg" xmlns:dc="http://purl.org/dc/elements/1.1/" viewBox="3981.25 23037.5 575 575" width="575" height="575">
  <defs>
    <clipPath id="artboard_clip_path">
      <path d="M 3981.25 23037.5 L 4556.25 23037.5 L 4556.25 23612.5 L 3981.25 23612.5 Z"/>
    </clipPath>
  </defs>
  <metadata> Produced by OmniGraffle 7.18.5\n2021-06-28 21:06:33 +0000</metadata>
  <g id="Canvas_1" fill="none" stroke-opacity="1" stroke="none" fill-opacity="1" stroke-dasharray="none">
    <title>Canvas 1</title>
    <g id="Canvas_1_Shapes" clip-path="url(#artboard_clip_path)">
      <title>Shapes</title>
      <g id="Graphic_535">
        <path d="M 4e3 23200 L 4175 23200 L 4225 23300 L 4050 23300 Z" fill="#939597"/>
      </g>
      <g id="Graphic_534">
        <path d="M 4050 23350 L 4225 23350 L 4175 23450 L 4e3 23450 Z" fill="#939597"/>
      </g>
      <g id="Graphic_533">
        <path d="M 4225 23200 L 4325 23200 L 4387.5 23325 L 4250 23600 L 4150 23600 L 4287.5 23325 Z" fill="#ffb300"/>
      </g>
      <g id="Graphic_532">
        <path d="M 4375 23200 L 4475 23200 L 4537.5 23325 L 4400 23600 L 4300 23600 L 4437.5 23325 Z" fill="#ffb300"/>
      </g>
      <g id="Graphic_531">
        <path d="M 4300 23050 L 4400 23050 L 4450 23150 L 4350 23150 Z" fill="#939597"/>
      </g>
      <g id="Graphic_530">
        <path d="M 4150 23050 L 4250 23050 L 4300 23150 L 4200 23150 Z" fill="#939597"/>
      </g>
    </g>
  </g>
</svg>
